<?xml version="1.0" encoding="UTF-8"?>
<svg xmlns="http://www.w3.org/2000/svg" width="3611.09" height="1240.00" viewBox="0 0 3611.09 1240.00" role="img" aria-label="ULiUA! wordmark">
  <title>ULiUA!</title>
  <desc>Outlined SVG wordmark generated from Symbola.ttf</desc>
  <g fill="#000000">
    <path d="M1413 1284Q1245 1285 1217 1199Q1209 1175 1209 1131V463Q1209 260 1091 114Q964 -43 766 -43Q562 -43 416.0 100.5Q270 244 270 448V1208Q270 1238 263 1251Q243 1289 68 1284V1346Q141 1340 224 1340H493Q577 1340 649 1346V1284Q601 1285 589 1285Q471 1285 453 1251Q444 1234 444 1200V441Q444 143 636 48Q698 17 770 17Q940 17 1049 153Q1149 279 1149 454V1139Q1149 1228 1086 1261Q1041 1284 946 1284V1346Q1151 1340 1180 1340Q1209 1340 1413 1346Z" transform="translate(120.00,904.18) scale(0.488281, -0.488281)" />
    <path d="M1149 508 1094 0H68V61Q76 61 95 60Q111 60 121 60Q245 60 263 95Q270 109 270 141V1205Q270 1237 263 1251Q246 1285 68 1284V1346Q139 1340 194 1340H577Q624 1340 697 1346V1284Q686 1284 664.0 1285.0Q642 1286 631 1286Q475 1286 454 1250Q444 1233 444 1202V140Q444 88 464 73Q479 61 530 61H703Q915 61 1006 184Q1076 280 1100 508Z" transform="translate(842.66,904.18) scale(0.488281, -0.488281)" />
    <path d="M369 1276Q369 1228 335.5 1194.5Q302 1161 254 1161Q208 1161 175.0 1195.5Q142 1230 142 1276Q142 1321 175.5 1355.0Q209 1389 254 1389Q302 1389 335.5 1356.0Q369 1323 369 1276ZM510 0Q308 6 287 6Q246 6 53 0V66Q104 65 97 65Q163 65 186 78Q219 96 219 157V739Q219 824 178 844Q155 856 61 855V923L359 946V144Q359 85 410 71Q434 64 510 66Z" transform="translate(1436.41,904.18) scale(0.488281, -0.488281)" />
    <path d="M1413 1284Q1245 1285 1217 1199Q1209 1175 1209 1131V463Q1209 260 1091 114Q964 -43 766 -43Q562 -43 416.0 100.5Q270 244 270 448V1208Q270 1238 263 1251Q243 1289 68 1284V1346Q141 1340 224 1340H493Q577 1340 649 1346V1284Q601 1285 589 1285Q471 1285 453 1251Q444 1234 444 1200V441Q444 143 636 48Q698 17 770 17Q940 17 1049 153Q1149 279 1149 454V1139Q1149 1228 1086 1261Q1041 1284 946 1284V1346Q1151 1340 1180 1340Q1209 1340 1413 1346Z" transform="translate(1710.82,904.18) scale(0.488281, -0.488281)" />
    <path d="M1417 0Q1290 6 1062 6Q949 6 875 0V61Q1037 60 1037 120Q1037 149 990 279Q959 363 928 448H441Q413 375 385 302Q346 195 346 162Q346 111 398 84Q440 61 495 61V0Q306 6 267 6Q205 6 68 0V61Q242 63 287 194L696 1371Q710 1411 742 1411Q774 1411 788 1371L1213 140Q1234 79 1297 65Q1322 59 1417 61ZM906 510 684 1151 464 510Z" transform="translate(2433.48,904.18) scale(0.488281, -0.488281)" />
    <path d="M449 1362 370 430Q366 383 341 383Q316 383 312 430L233 1362Q233 1362 233 1371Q233 1414 265.0 1440.0Q297 1466 341 1466Q385 1466 417.0 1440.0Q449 1414 449 1371Q449 1362 449 1362ZM450 109Q450 64 418.0 32.0Q386 0 341 0Q296 0 264.0 32.0Q232 64 232 109Q232 153 264.0 185.0Q296 217 341 217Q386 217 418.0 185.0Q450 153 450 109Z" transform="translate(3158.09,904.18) scale(0.488281, -0.488281)" />
  </g>
</svg>